<?xml version="1.0" standalone="no"?><!-- Generator: Gravit.io --><svg xmlns="http://www.w3.org/2000/svg" xmlns:xlink="http://www.w3.org/1999/xlink" style="isolation:isolate" viewBox="0 0 36 36" width="36" height="36"><defs><clipPath id="_clipPath_XNvLKayDfnpSoTEmja2SiJsPcPHQEjqU"><rect width="36" height="36"/></clipPath></defs><g clip-path="url(#_clipPath_XNvLKayDfnpSoTEmja2SiJsPcPHQEjqU)"><clipPath id="_clipPath_l7pKh3lglw0CZSOa7TqkXwKIa5ixW941"><rect x="0" y="0" width="36" height="36" transform="matrix(1,0,0,1,0,0)" fill="rgb(255,255,255)"/></clipPath><g clip-path="url(#_clipPath_l7pKh3lglw0CZSOa7TqkXwKIa5ixW941)"><g><g filter="url(#Y4eGGNYOux0GbxwFAkQoDjM3x9p4DIHP)"><path d=" M 34 3.615 L 18.195 32.385 L 2.389 3.615 L 34 3.615 Z " fill="rgb(0,255,255)" vector-effect="non-scaling-stroke" stroke-width="2" stroke="rgb(0,0,0)" stroke-opacity="100" stroke-linejoin="miter" stroke-linecap="square" stroke-miterlimit="3"/></g><defs><filter id="Y4eGGNYOux0GbxwFAkQoDjM3x9p4DIHP" x="-16.611" y="-13.385" width="69.611" height="66.77" filterUnits="userSpaceOnUse"><feGaussianBlur xmlns="http://www.w3.org/2000/svg" in="SourceGraphic" stdDeviation="2.146804531419514"/><feOffset xmlns="http://www.w3.org/2000/svg" dx="0" dy="2" result="pf_100_offsetBlur"/><feFlood xmlns="http://www.w3.org/2000/svg" flood-color="#000000" flood-opacity="0.65"/><feComposite xmlns="http://www.w3.org/2000/svg" in2="pf_100_offsetBlur" operator="in" result="pf_100_dropShadow"/><feBlend xmlns="http://www.w3.org/2000/svg" in="SourceGraphic" in2="pf_100_dropShadow" mode="normal"/></filter></defs><path d=" M 19.95 7.1 L 19.452 16.641 L 17.069 16.641 L 16.571 7.1 L 19.95 7.1 L 19.95 7.1 L 19.95 7.1 Z  M 16.532 19.98 L 16.532 19.98 L 16.532 19.98 Q 16.532 19.16 16.971 18.74 L 16.971 18.74 L 16.971 18.74 Q 17.411 18.32 18.251 18.32 L 18.251 18.32 L 18.251 18.32 Q 19.061 18.32 19.506 18.75 L 19.506 18.75 L 19.506 18.75 Q 19.95 19.18 19.95 19.98 L 19.95 19.98 L 19.95 19.98 Q 19.95 20.752 19.501 21.196 L 19.501 21.196 L 19.501 21.196 Q 19.051 21.641 18.251 21.641 L 18.251 21.641 L 18.251 21.641 Q 17.43 21.641 16.981 21.206 L 16.981 21.206 L 16.981 21.206 Q 16.532 20.771 16.532 19.98 Z " fill-rule="evenodd" fill="rgb(0,0,0)"/></g></g></g></svg>