<?xml version="1.0" standalone="no"?><!-- Generator: Gravit.io --><svg xmlns="http://www.w3.org/2000/svg" xmlns:xlink="http://www.w3.org/1999/xlink" style="isolation:isolate" viewBox="0 0 36 36" width="36" height="36"><defs><clipPath id="_clipPath_EbxKWIaskStn6rzOoS57bYXeqZRDuB0Q"><rect width="36" height="36"/></clipPath></defs><g clip-path="url(#_clipPath_EbxKWIaskStn6rzOoS57bYXeqZRDuB0Q)"><defs><filter id="R2Mlw1Q0Qc9JKj5gvFo5iGX4UjKuFMVp" x="-3.2" y="-8" width="44.4" height="54" filterUnits="userSpaceOnUse"><feGaussianBlur xmlns="http://www.w3.org/2000/svg" in="SourceGraphic" stdDeviation="2.146804531419514"/><feOffset xmlns="http://www.w3.org/2000/svg" dx="1" dy="0" result="pf_100_offsetBlur"/><feFlood xmlns="http://www.w3.org/2000/svg" flood-color="#000000" flood-opacity="0.65"/><feComposite xmlns="http://www.w3.org/2000/svg" in2="pf_100_offsetBlur" operator="in" result="pf_100_dropShadow"/><feBlend xmlns="http://www.w3.org/2000/svg" in="SourceGraphic" in2="pf_100_dropShadow" mode="normal"/></filter></defs><g filter="url(#R2Mlw1Q0Qc9JKj5gvFo5iGX4UjKuFMVp)"><path d=" M 18 3 C 11.808 3 6.8 8.008 6.8 14.2 C 6.8 22.6 18 35 18 35 C 18 35 29.2 22.6 29.2 14.2 C 29.2 8.008 24.192 3 18 3 Z " fill="rgb(202,0,0)" vector-effect="non-scaling-stroke" stroke-width="2" stroke="rgb(0,0,0)" stroke-linejoin="miter" stroke-linecap="butt" stroke-miterlimit="4"/></g><path d=" M -4.75 -2 L 33.25 -2 L 33.25 36 L -4.75 36 L -4.75 -2 Z " fill="none"/><path d=" M 19.709 9.729 L 19.211 19.271 L 16.828 19.271 L 16.33 9.729 L 19.709 9.729 Z  M 16.291 22.61 L 16.291 22.61 L 16.291 22.61 Q 16.291 21.79 16.73 21.37 L 16.73 21.37 L 16.73 21.37 Q 17.17 20.95 18.01 20.95 L 18.01 20.95 L 18.01 20.95 Q 18.82 20.95 19.265 21.38 L 19.265 21.38 L 19.265 21.38 Q 19.709 21.81 19.709 22.61 L 19.709 22.61 L 19.709 22.61 Q 19.709 23.382 19.26 23.826 L 19.26 23.826 L 19.26 23.826 Q 18.811 24.271 18.01 24.271 L 18.01 24.271 L 18.01 24.271 Q 17.189 24.271 16.74 23.836 L 16.74 23.836 L 16.74 23.836 Q 16.291 23.401 16.291 22.61 Z " fill-rule="evenodd" fill="rgb(0,0,0)"/></g></svg>