<?xml version="1.0" standalone="no"?><!-- Generator: Gravit.io --><svg xmlns="http://www.w3.org/2000/svg" xmlns:xlink="http://www.w3.org/1999/xlink" style="isolation:isolate" viewBox="0 0 36 36" width="36" height="36"><defs><clipPath id="_clipPath_o6aN618BTJuZSVUmD0GDO7acx3p481lK"><rect width="36" height="36"/></clipPath></defs><g clip-path="url(#_clipPath_o6aN618BTJuZSVUmD0GDO7acx3p481lK)"><defs><filter id="uwQuCYYaIkhmD3rNUW7Udtzq17W0R44R" x="-7.611" y="-4.385" width="51.611" height="48.771" filterUnits="userSpaceOnUse"><feGaussianBlur xmlns="http://www.w3.org/2000/svg" in="SourceGraphic" stdDeviation="2.146804531419514"/><feOffset xmlns="http://www.w3.org/2000/svg" dx="0" dy="2" result="pf_100_offsetBlur"/><feFlood xmlns="http://www.w3.org/2000/svg" flood-color="#000000" flood-opacity="0.65"/><feComposite xmlns="http://www.w3.org/2000/svg" in2="pf_100_offsetBlur" operator="in" result="pf_100_dropShadow"/><feBlend xmlns="http://www.w3.org/2000/svg" in="SourceGraphic" in2="pf_100_dropShadow" mode="normal"/></filter></defs><g filter="url(#uwQuCYYaIkhmD3rNUW7Udtzq17W0R44R)"><polygon points="34,3.615,18.195,32.385,2.389,3.615" fill="rgb(170,56,176)" vector-effect="non-scaling-stroke" stroke-width="2" stroke="rgb(0,0,0)" stroke-linejoin="miter" stroke-linecap="square" stroke-miterlimit="3"/></g><path d=" M 19.95 7.1 L 19.452 16.641 L 17.069 16.641 L 16.571 7.1 L 19.95 7.1 L 19.95 7.1 Z  M 16.532 19.98 L 16.532 19.98 L 16.532 19.98 Q 16.532 19.16 16.971 18.74 L 16.971 18.74 L 16.971 18.74 Q 17.411 18.32 18.251 18.32 L 18.251 18.32 L 18.251 18.32 Q 19.061 18.32 19.506 18.75 L 19.506 18.75 L 19.506 18.75 Q 19.95 19.18 19.95 19.98 L 19.95 19.98 L 19.95 19.98 Q 19.95 20.752 19.501 21.196 L 19.501 21.196 L 19.501 21.196 Q 19.051 21.641 18.251 21.641 L 18.251 21.641 L 18.251 21.641 Q 17.43 21.641 16.981 21.206 L 16.981 21.206 L 16.981 21.206 Q 16.532 20.771 16.532 19.98 Z " fill-rule="evenodd" fill="rgb(0,0,0)"/></g></svg>