<?xml version="1.0" standalone="no"?><!-- Generator: Gravit.io --><svg xmlns="http://www.w3.org/2000/svg" xmlns:xlink="http://www.w3.org/1999/xlink" style="isolation:isolate" viewBox="0 0 36 36" width="36" height="36"><defs><clipPath id="_clipPath_iVaVT2Jj2EJRBw1DoL86Gbo0Znu5SdDu"><rect width="36" height="36"/></clipPath></defs><g clip-path="url(#_clipPath_iVaVT2Jj2EJRBw1DoL86Gbo0Znu5SdDu)"><clipPath id="_clipPath_0rMkbnzHm7Qvojmd4rfCSuc1pCyjSJbm"><rect x="0" y="0" width="36" height="36" transform="matrix(1,0,0,1,0,0)" fill="rgb(255,255,255)"/></clipPath><g clip-path="url(#_clipPath_0rMkbnzHm7Qvojmd4rfCSuc1pCyjSJbm)"><g><g filter="url(#valRKTMj603PCEgzffUJ8sYsuzKGxpJM)"><path d=" M 18 3 C 11.808 3 6.8 8.008 6.8 14.2 C 6.8 22.6 18 35 18 35 C 18 35 29.2 22.6 29.2 14.2 C 29.2 8.008 24.192 3 18 3 Z " fill="rgb(0,0,0)" vector-effect="non-scaling-stroke" stroke-width="2" stroke="rgb(0,0,0)" stroke-opacity="100" stroke-linejoin="miter" stroke-linecap="butt" stroke-miterlimit="4"/></g><defs><filter id="valRKTMj603PCEgzffUJ8sYsuzKGxpJM" x="-11.2" y="-16" width="60.4" height="70" filterUnits="userSpaceOnUse"><feGaussianBlur xmlns="http://www.w3.org/2000/svg" in="SourceGraphic" stdDeviation="2.146804531419514"/><feOffset xmlns="http://www.w3.org/2000/svg" dx="1" dy="0" result="pf_100_offsetBlur"/><feFlood xmlns="http://www.w3.org/2000/svg" flood-color="#000000" flood-opacity="0.65"/><feComposite xmlns="http://www.w3.org/2000/svg" in2="pf_100_offsetBlur" operator="in" result="pf_100_dropShadow"/><feBlend xmlns="http://www.w3.org/2000/svg" in="SourceGraphic" in2="pf_100_dropShadow" mode="normal"/></filter></defs><path d=" M -4.75 -2 L 33.25 -2 L 33.25 36 L -4.75 36 L -4.75 -2 L -4.75 -2 Z " fill="none"/></g></g><path d=" M 24.125 11.5 L 20.625 15 L 23.25 15 C 23.25 17.896 20.896 20.25 18 20.25 C 17.116 20.25 16.276 20.031 15.55 19.638 L 14.272 20.915 C 15.349 21.598 16.626 22 18 22 C 21.868 22 25 18.868 25 15 L 27.625 15 L 24.125 11.5 Z  M 12.75 15 C 12.75 12.104 15.104 9.75 18 9.75 C 18.884 9.75 19.724 9.969 20.45 10.363 L 21.728 9.085 C 20.651 8.403 19.374 8 18 8 C 14.133 8 11 11.133 11 15 L 8.375 15 L 11.875 18.5 L 15.375 15 L 12.75 15 Z " fill="rgb(255,255,255)"/><path d=" M 13 9 L 37 9 L 37 33 L 13 33 L 13 9 Z " fill="none"/></g></svg>